<?xml version="1.0" encoding="iso-8859-1"?>
<!-- Generator: Adobe Illustrator 16.0.0, SVG Export Plug-In . SVG Version: 6.00 Build 0)  -->
<!DOCTYPE svg PUBLIC "-//W3C//DTD SVG 1.1//EN" "http://www.w3.org/Graphics/SVG/1.1/DTD/svg11.dtd">
<svg version="1.1" id="Capa_1" xmlns="http://www.w3.org/2000/svg" xmlns:xlink="http://www.w3.org/1999/xlink" x="0px" y="0px"
	 width="216.591px" height="216.591px" viewBox="0 0 216.591 216.591" style="enable-background:new 0 0 216.591 216.591;"
	 xml:space="preserve">
<g>
	<g>
		<path d="M30.784,157.895h155.021c7.24,0,13.129-5.882,13.129-13.128V54.76c0-7.246-5.895-13.131-13.129-13.131H30.784
			c-7.237,0-13.125,5.885-13.125,13.131v90.007C17.652,152.013,23.547,157.895,30.784,157.895z M24.719,54.76
			c0-3.349,2.719-6.074,6.064-6.074h155.021c3.35,0,6.065,2.725,6.065,6.074v90.007c0,3.349-2.716,6.077-6.065,6.077H30.784
			c-3.346,0-6.064-2.729-6.064-6.077V54.76z"/>
		<path d="M128.304,161.536v5.2H88.287v-5.2H0c0,7.404,4.311,13.427,9.597,13.427h197.398c5.285,0,9.597-6.028,9.597-13.427H128.304
			z"/>
		<path d="M88.174,120.495c0-7.002-8.068-16.471-18.962-19.232c4.552-3.057,7.688-9.104,7.688-14.541
			c0-7.676-6.217-13.904-13.898-13.904c-7.675,0-13.898,6.229-13.898,13.904c0,5.438,3.136,11.484,7.675,14.541
			c-10.872,2.762-18.946,12.23-18.946,19.232C37.838,128.776,88.174,128.776,88.174,120.495z M61.887,105.303h-0.064l-2.299-2.652
			c1.121,0.402,2.269,0.652,3.483,0.652c1.218,0,2.366-0.238,3.486-0.637l-2.308,2.637h-0.055l5.943,14.353l-7.067,7.051
			l-7.057-7.051L61.887,105.303z"/>
		<path d="M96.2,68.938h79.533c1.681,0,3.021-1.346,3.021-3.018c0-1.671-1.346-3.026-3.021-3.026H96.2
			c-1.678,0-3.018,1.361-3.018,3.026C93.176,67.593,94.522,68.938,96.2,68.938z"/>
		<path d="M96.2,85.86h79.533c1.681,0,3.021-1.352,3.021-3.018c0-1.678-1.346-3.023-3.021-3.023H96.2
			c-1.678,0-3.018,1.352-3.018,3.023C93.176,84.515,94.522,85.86,96.2,85.86z"/>
		<path d="M96.2,102.785h79.533c1.681,0,3.021-1.355,3.021-3.015c0-1.674-1.346-3.023-3.021-3.023H96.2
			c-1.678,0-3.018,1.355-3.018,3.023C93.176,101.43,94.522,102.785,96.2,102.785z"/>
		<path d="M96.2,119.716h79.533c1.681,0,3.021-1.352,3.021-3.021c0-1.681-1.346-3.026-3.021-3.026H96.2
			c-1.678,0-3.018,1.358-3.018,3.026C93.176,118.364,94.522,119.716,96.2,119.716z"/>
		<path d="M96.2,136.644h38.846c1.668,0,3.008-1.364,3.008-3.021c0-1.681-1.352-3.021-3.008-3.021H96.2
			c-1.678,0-3.018,1.353-3.018,3.021C93.176,135.279,94.522,136.644,96.2,136.644z"/>
	</g>
</g>
<g>
</g>
<g>
</g>
<g>
</g>
<g>
</g>
<g>
</g>
<g>
</g>
<g>
</g>
<g>
</g>
<g>
</g>
<g>
</g>
<g>
</g>
<g>
</g>
<g>
</g>
<g>
</g>
<g>
</g>
</svg>
